<?xml version="1.0" standalone="no"?>
<!DOCTYPE svg PUBLIC "-//W3C//DTD SVG 20010904//EN"
 "http://www.w3.org/TR/2001/REC-SVG-20010904/DTD/svg10.dtd">
<svg version="1.0" xmlns="http://www.w3.org/2000/svg"
 width="512.000000pt" height="512.000000pt" viewBox="0 0 512.000000 512.000000"
 preserveAspectRatio="xMidYMid meet">
<metadata>
Created by potrace 1.14, written by Peter Selinger 2001-2017
</metadata>
<g transform="translate(0.000000,512.000000) scale(0.100000,-0.100000)"
fill="#000000" stroke="none">
<path d="M2310 4740 c-855 -104 -1565 -681 -1834 -1490 -289 -868 -13 -1819
696 -2398 188 -153 458 -303 678 -376 1061 -352 2199 122 2686 1120 379 776
264 1706 -295 2375 -331 396 -802 664 -1331 754 -112 20 -486 28 -600 15z
m355 -1774 c174 -46 291 -181 315 -361 41 -314 -275 -559 -573 -446 -235 90
-341 380 -221 601 51 93 171 185 271 209 57 14 152 12 208 -3z m-786 -642
c103 -298 366 -485 681 -485 320 0 581 190 685 498 l23 68 566 3 c311 1 566
-1 566 -5 0 -5 -7 -53 -15 -108 -120 -797 -727 -1415 -1535 -1562 -119 -21
-456 -24 -575 -5 -625 103 -1138 483 -1405 1044 -86 181 -148 395 -166 571
l-7 67 577 -2 577 -3 28 -81z"/>
</g>
</svg>
